<svg width="50" height="35" viewBox="0 0 50 35" fill="none" xmlns="http://www.w3.org/2000/svg">
<path d="M50 25.7812C50 30.5273 47.3648 34.375 42.1875 34.375H7.8125C2.63516 34.375 0 30.5273 0 25.7812V8.59375C0 3.84766 2.63516 0 7.8125 0H42.1875C47.3648 0 50 3.84766 50 8.59375V25.7812Z" fill="#128807"/>
<path d="M44.6407 17.8046L25.1172 31.5234L5.59302 17.8046L25.1172 4.08588L44.6407 17.8046Z" fill="#F9CB38"/>
<path fill-rule="evenodd" clip-rule="evenodd" d="M32.8202 20.1937C31.9312 23.2148 29.1491 25.5148 25.9991 25.8273C21.7905 26.2484 18.1085 23.5734 17.2132 19.4382C16.9483 18.223 16.9821 16.9617 17.3116 15.7625C17.4343 15.6297 17.6038 15.5976 17.7726 15.5742C19.0035 15.4033 20.2478 15.3491 21.489 15.4125C22.8132 15.4875 24.1265 15.6711 25.403 16.032C26.7132 16.4031 27.9819 16.8875 29.1796 17.5312C30.0809 18.0101 30.9418 18.5614 31.7538 19.1796C32.0288 19.3929 32.3093 19.6023 32.5734 19.8296C32.6913 19.9312 32.7843 20.0406 32.8202 20.1937Z" fill="#002776"/>
<path fill-rule="evenodd" clip-rule="evenodd" d="M17.7531 14.5399C18.7616 12.286 20.4624 10.7852 22.8132 10.0805C27.5476 8.66097 32.4046 11.7899 33.1085 16.6696C33.2179 17.4235 33.2226 18.1797 33.107 18.9352C32.9874 18.9797 32.8984 18.9164 32.8163 18.8485C31.9583 18.1473 31.0429 17.5196 30.0796 16.9719C29.3379 16.551 28.5672 16.1834 27.7734 15.8719C27.6327 15.8164 27.4562 15.7875 27.4077 15.5993C27.4585 15.5086 27.5226 15.4297 27.5991 15.3563C27.6265 15.3282 27.6663 15.3008 27.6296 15.2539C27.6171 15.2391 27.5913 15.2391 27.5695 15.2414C27.5109 15.2477 27.5187 15.2883 27.521 15.3313C27.5257 15.4711 27.4445 15.561 27.3374 15.6328C27.1476 15.6758 26.9656 15.6188 26.8116 15.5368C26.371 15.3055 25.8835 15.2266 25.4171 15.0977C24.6898 14.9 23.9429 14.7883 23.1976 14.6719C22.6028 14.5769 22.004 14.5086 21.4031 14.4672C20.8562 14.4289 20.2991 14.4344 19.7484 14.4719C19.1476 14.5141 18.5452 14.5563 17.9476 14.6282C17.9101 14.6336 17.8718 14.6282 17.8374 14.6126C17.8029 14.5969 17.7736 14.5717 17.7531 14.5399Z" fill="#002776"/>
<path fill-rule="evenodd" clip-rule="evenodd" d="M27.4139 15.5508C27.4108 15.6461 27.4959 15.6336 27.5475 15.6539C29.565 16.4388 31.4411 17.547 33.1022 18.9352C33.0543 19.3638 32.9594 19.7859 32.8194 20.1938C31.842 19.3828 30.8413 18.6102 29.7342 17.9789C26.235 15.986 22.4881 15.1961 18.4827 15.6196C18.092 15.6594 17.7014 15.7125 17.3108 15.7602C17.4116 15.3375 17.5397 14.9227 17.7499 14.5383C20.6741 14.1438 23.5475 14.368 26.367 15.2407C26.717 15.3492 27.0506 15.5242 27.4241 15.5571L27.4139 15.5485" fill="#FEFEFE"/>
<path fill-rule="evenodd" clip-rule="evenodd" d="M31.0547 20.586C30.8195 20.561 31.075 20.8493 30.8375 20.843C30.6304 20.8399 30.6195 20.6743 30.5179 20.5821C30.5961 20.5008 30.7344 20.4844 30.7781 20.3578C30.8078 20.4914 30.9336 20.5196 31.0547 20.586Z" fill="#D9DFEA"/>
<path fill-rule="evenodd" clip-rule="evenodd" d="M22.1827 22.0312C21.9616 22.057 22.1468 22.2976 21.9616 22.3015C21.7749 22.3054 21.6788 22.1672 21.6413 22.0242C21.628 21.9836 21.8077 21.8929 21.896 21.8257C21.9069 21.9672 22.0538 21.9609 22.1827 22.0312Z" fill="#E9ECF3"/>
<path fill-rule="evenodd" clip-rule="evenodd" d="M25.1092 21.5961C24.8022 21.7945 25.0499 21.3461 24.8694 21.3898C24.928 21.2961 25.0936 21.3179 25.1045 21.1742C25.1827 21.2554 25.2491 21.3492 25.3733 21.3664C25.1959 21.3422 25.3889 21.7359 25.1092 21.5961Z" fill="#EDEFF5"/>
<path fill-rule="evenodd" clip-rule="evenodd" d="M18.7656 16.332C18.6922 16.4719 18.6367 16.6281 18.4141 16.5344C18.3 16.4867 18.4219 16.3305 18.2852 16.3156L18.5383 16.093C18.5555 16.1297 18.5758 16.1648 18.593 16.2016C18.6133 16.2945 18.7984 16.1711 18.7656 16.332Z" fill="#F0F2F6"/>
<path fill-rule="evenodd" clip-rule="evenodd" d="M19.4742 19.7265C19.3578 19.7633 19.4414 20.0695 19.1914 19.9359C19.1664 19.9234 19.057 19.9836 19.0774 19.9484C19.143 19.8203 18.9961 19.7578 19.0188 19.6555C19.1555 19.7148 19.1477 19.4648 19.2875 19.532C19.2977 19.5398 19.2977 19.5711 19.3047 19.5914C19.3195 19.6883 19.5086 19.5672 19.4742 19.7265Z" fill="#ECEFF4"/>
<path fill-rule="evenodd" clip-rule="evenodd" d="M18.2453 20.6313C18.0055 20.7149 18.1844 20.425 18.0469 20.4274C18.1109 20.3735 18.1828 20.2727 18.2469 20.2766C18.3234 20.2805 18.3938 20.375 18.4641 20.4289C18.3594 20.4641 18.4695 20.7477 18.2453 20.6313Z" fill="#D9DFEA"/>
<path fill-rule="evenodd" clip-rule="evenodd" d="M27.5156 23.3961C27.2617 23.5118 27.5085 23.1703 27.339 23.2149C27.3218 23.0844 27.5335 23.1633 27.507 23.0258L27.7359 23.2094C27.6429 23.2516 27.7359 23.5172 27.5156 23.3961Z" fill="#D8DEEA"/>
<path fill-rule="evenodd" clip-rule="evenodd" d="M29.1405 23.2078C28.9303 23.2953 29.0592 23.0125 28.9459 22.9844C29.0225 22.9351 29.103 22.8828 29.178 22.832C29.1842 22.9476 29.3428 22.9055 29.36 23.0078C29.242 23.0148 29.3647 23.2695 29.1405 23.2078ZM30.6014 22.1562C30.3623 22.2773 30.5389 21.9594 30.4022 21.9726C30.4295 21.8711 30.5865 21.9094 30.5959 21.7922L30.8201 21.9601C30.6834 21.9562 30.8514 22.2914 30.6014 22.1562Z" fill="#DCE1EC"/>
<path fill-rule="evenodd" clip-rule="evenodd" d="M20.9241 20.6976C20.6741 20.839 20.8374 20.5226 20.7218 20.5164C20.7335 20.4 20.9101 20.45 20.9179 20.3265C20.9413 20.4406 21.0929 20.4078 21.1257 20.5101C20.9765 20.4883 21.189 20.8468 20.9241 20.6976Z" fill="#D4DAE7"/>
<path fill-rule="evenodd" clip-rule="evenodd" d="M21.9374 18.3242C21.796 18.3149 21.9773 18.0922 21.8038 18.1063C21.8335 17.9813 21.9671 18.007 22.0406 17.9422C22.0781 18.0211 22.1843 18.0391 22.1898 18.1524C22.2023 18.3594 22.0187 18.2524 21.9374 18.3242Z" fill="#F2F4F7"/>
<path fill-rule="evenodd" clip-rule="evenodd" d="M26.0546 19.9743C25.8382 20.0985 25.9523 19.8211 25.8523 19.7907C25.9203 19.7344 25.9859 19.6774 26.0546 19.6196C26.0593 19.7352 26.2804 19.7094 26.2179 19.7985C26.1804 19.8516 26.3015 20.0946 26.0546 19.9743Z" fill="#E6E9F1"/>
<path fill-rule="evenodd" clip-rule="evenodd" d="M25.0858 19.2781C24.8389 19.3031 25.0936 19.0789 24.9335 19.0844C24.996 19.0258 25.0561 18.9258 25.1264 18.9195C25.1874 18.9133 25.2577 19.0125 25.3241 19.0672C25.2374 19.1508 25.2507 19.3664 25.0858 19.2781Z" fill="#EAEDF3"/>
<path fill-rule="evenodd" clip-rule="evenodd" d="M31.0797 21.1016C31.1304 21.2359 31.2304 21.2539 31.3086 21.3016C31.2289 21.3914 31.1976 21.5289 31.032 21.5289C30.8625 21.5305 30.9773 21.4016 30.939 21.3414C30.8445 21.1914 31.1937 21.318 31.0797 21.1016Z" fill="#E4E8F0"/>
<path fill-rule="evenodd" clip-rule="evenodd" d="M29.3108 23.8235C29.2514 23.9118 29.292 23.9962 29.1342 23.9993C28.9538 24.0024 29.0116 23.8704 29.0038 23.8297C28.9889 23.7626 29.092 23.6985 29.1514 23.7118C29.203 23.7212 29.303 23.7501 29.3108 23.8235Z" fill="#CED5E4"/>
<path fill-rule="evenodd" clip-rule="evenodd" d="M20.8703 21.3203C20.7414 21.3352 20.8485 21.5039 20.6852 21.4985C20.536 21.4938 20.5578 21.393 20.5414 21.3321C20.5156 21.2469 20.6414 21.2492 20.6696 21.1852C20.7289 21.2266 20.7891 21.268 20.8703 21.3203Z" fill="#DAE0EB"/>
<path fill-rule="evenodd" clip-rule="evenodd" d="M28.9608 22.2126C29.0163 22.1712 29.0718 22.1329 29.1303 22.0938C29.135 22.1805 29.3218 22.1305 29.2593 22.2415C29.2335 22.286 29.2968 22.4079 29.135 22.3969C28.9897 22.3868 29.0241 22.2852 28.9608 22.2126Z" fill="#D8DEE9"/>
<path fill-rule="evenodd" clip-rule="evenodd" d="M28.367 22.4805C28.3389 22.6344 28.2514 22.6594 28.1553 22.6774C27.992 22.7047 28.1146 22.582 28.0881 22.5352C28.0193 22.418 28.1928 22.4406 28.2131 22.3641C28.2584 22.4234 28.3623 22.4219 28.367 22.4805Z" fill="#CBD2E3"/>
<path fill-rule="evenodd" clip-rule="evenodd" d="M27.4531 17.4141C27.3984 17.4399 27.471 17.5704 27.3539 17.5329C27.2648 17.5024 27.1554 17.4602 27.1632 17.3508C27.1664 17.3086 27.2726 17.2735 27.332 17.2368C27.3421 17.3157 27.5109 17.2899 27.4531 17.4141Z" fill="#D1D8E6"/>
<path fill-rule="evenodd" clip-rule="evenodd" d="M31.8741 20.8406C31.7272 20.8984 31.7936 20.7773 31.7678 20.7422C31.6694 20.6086 31.8639 20.6281 31.8741 20.5484C31.9342 20.5882 32.0514 20.6336 32.0467 20.6679C32.0433 20.7126 32.024 20.7545 31.9924 20.7862C31.9607 20.8179 31.9187 20.8372 31.8741 20.8406Z" fill="#DADFEA"/>
<path fill-rule="evenodd" clip-rule="evenodd" d="M24.3202 19.6484C24.3202 19.7391 24.503 19.7031 24.4413 19.8164C24.4163 19.8625 24.4694 19.9859 24.3428 19.9602C24.2467 19.9406 24.1499 19.8844 24.1467 19.7891C24.1467 19.7445 24.2577 19.6969 24.3202 19.6484Z" fill="#CAD2E2"/>
<path fill-rule="evenodd" clip-rule="evenodd" d="M26.8201 22.4751C26.7483 22.4415 26.7451 22.3469 26.7498 22.3016C26.7576 22.2415 26.8381 22.1602 26.9069 22.193C26.949 22.2133 27.0686 22.2016 27.0397 22.311C27.0131 22.4157 26.9084 22.4305 26.8201 22.4751Z" fill="#D0D7E5"/>
<path fill-rule="evenodd" clip-rule="evenodd" d="M29.8438 22.3375C29.8469 22.3368 29.9016 22.261 29.9633 22.2594C30.0078 22.2579 30.0531 22.35 30.1008 22.4016C30.0367 22.4196 30.0914 22.5375 29.9648 22.536C29.8508 22.5336 29.8508 22.4821 29.8438 22.3375Z" fill="#EFF2F6"/>
<path fill-rule="evenodd" clip-rule="evenodd" d="M24.8172 20.3595C24.7961 20.4438 24.7961 20.4962 24.7211 20.4946C24.6445 20.493 24.607 20.4649 24.6086 20.3868C24.6086 20.3251 24.6492 20.2821 24.6953 20.286C24.7484 20.2899 24.8242 20.3048 24.8172 20.3595Z" fill="#CCD4E3"/>
<path fill-rule="evenodd" clip-rule="evenodd" d="M20.0265 19.1438C20.064 19.1844 20.1069 19.2165 20.1233 19.2579C20.1374 19.2922 20.1155 19.3446 20.0671 19.35C20.0132 19.3547 19.9554 19.3532 19.9382 19.286C19.9226 19.2204 19.9796 19.1969 20.0265 19.1438Z" fill="#E0E5EE"/>
<path fill-rule="evenodd" clip-rule="evenodd" d="M19.4741 19.7266C19.453 19.6367 19.3139 19.6938 19.3046 19.5906C19.3343 19.6688 19.5663 19.4945 19.4741 19.7266Z" fill="#7085B1"/>
<path fill-rule="evenodd" clip-rule="evenodd" d="M18.7656 16.3321C18.7484 16.236 18.6007 16.3118 18.5929 16.2016C18.6343 16.2672 18.8437 16.1118 18.7656 16.3321Z" fill="#5C75A7"/>
<path fill-rule="evenodd" clip-rule="evenodd" d="M27.4297 15.5594C27.4445 15.5 27.4922 15.4031 27.4734 15.3851C27.2187 15.1586 27.5586 15.1203 27.6094 15.0742C27.7023 14.9844 27.6875 15.3633 27.9328 15.1234C27.8008 15.4164 27.6242 15.5008 27.4211 15.5508L27.4297 15.5594Z" fill="#E7EAF2"/>
<path fill-rule="evenodd" clip-rule="evenodd" d="M19.8991 15.3165C19.6507 15.2922 19.8718 14.9688 19.8179 14.7813C19.7507 14.5391 19.9272 14.5422 20.0991 14.5415C20.3655 14.5399 20.5163 14.6524 20.5163 14.9336C20.5155 15.2102 20.3874 15.3196 19.8991 15.3165Z" fill="#15A24A"/>
<path fill-rule="evenodd" clip-rule="evenodd" d="M29.3913 16.8774C29.3366 17.0446 29.1342 17.1492 29.0999 17.3555C29.0967 17.3828 29.0186 17.3774 29.0038 17.2977C28.9413 16.9242 28.9381 16.925 28.6624 17.125C28.6405 17.1414 28.6022 17.1563 28.5811 17.1492C28.5405 17.1313 28.5241 17.0906 28.5483 17.0446C28.6397 16.8664 28.7256 16.6836 28.828 16.511C28.8967 16.3969 28.9803 16.4922 29.0475 16.525C29.1952 16.5977 29.3772 16.6391 29.3913 16.8774Z" fill="#13A248"/>
<path fill-rule="evenodd" clip-rule="evenodd" d="M30.0905 17.4852C29.9467 17.543 29.8772 17.4344 29.785 17.3953C29.7225 17.3688 29.6639 17.3438 29.6217 17.4133C29.5757 17.4867 29.6217 17.5289 29.685 17.5617C29.7335 17.5859 29.785 17.6047 29.821 17.643C29.8842 17.7094 30.0827 17.6914 30.0022 17.8328C29.9389 17.9453 29.8327 17.8141 29.7624 17.7727C29.6413 17.6984 29.4014 17.6578 29.4272 17.5289C29.4671 17.3219 29.585 17.0969 29.7421 16.9547C29.8678 16.8406 30.0069 17.0563 30.1483 17.1102C30.2092 17.1328 30.3132 17.1531 30.2952 17.2492C30.278 17.3484 30.2046 17.2906 30.1483 17.2774C30.0163 17.2469 29.8882 17.0234 29.7842 17.1781C29.7217 17.2703 29.9788 17.3086 30.06 17.4102C30.0725 17.425 30.0757 17.4453 30.0905 17.4852ZM31.7741 18.5898C31.7975 18.7727 31.7233 18.8969 31.5319 18.8656C31.3335 18.8328 31.1827 18.7117 31.1483 18.4945C31.1452 18.4727 31.1717 18.4281 31.1936 18.4219C31.2062 18.4178 31.2196 18.4164 31.2327 18.418C31.2459 18.4196 31.2585 18.4241 31.2698 18.4311C31.281 18.4381 31.2906 18.4474 31.2978 18.4585C31.305 18.4696 31.3097 18.4822 31.3116 18.4953C31.3366 18.6445 31.4147 18.7109 31.5717 18.7141C31.6022 18.4695 31.1608 18.3578 31.4147 18.1039C31.5421 17.9766 31.6975 18.082 31.8085 18.1844C31.9108 18.2773 32.0358 18.3797 31.8491 18.5125C31.8225 18.4984 31.7866 18.4758 31.7671 18.4914C31.7272 18.518 31.7663 18.5563 31.7741 18.5898Z" fill="#11A147"/>
<path fill-rule="evenodd" clip-rule="evenodd" d="M26.3781 16.2633C26.2851 16.2109 26.2898 16.1609 26.3047 16.1062C26.3344 15.9898 26.2742 15.9289 26.1679 15.8961C26.0617 15.8617 25.9797 15.8664 25.9508 15.9992C25.9406 16.0586 25.9094 16.1 25.8445 16.0781C25.7695 16.0508 25.807 15.9898 25.8211 15.9453C25.8508 15.8429 25.8773 15.7398 25.9242 15.6422C25.9664 15.5445 25.9367 15.3656 26.0906 15.3773C26.2539 15.389 26.4305 15.4281 26.5547 15.5633C26.6101 15.6226 26.6328 15.725 26.5875 15.7695C26.4555 15.9054 26.4664 16.0976 26.3781 16.2633Z" fill="#0FA046"/>
<path fill-rule="evenodd" clip-rule="evenodd" d="M21.557 15.2688C21.3047 15.3641 21.1054 15.3086 20.9109 15.3125C20.8226 15.3149 20.8148 15.2485 20.8148 15.1813C20.8211 15.1071 20.8211 15.0321 20.8211 14.9579C20.8304 14.5461 20.9765 14.4407 21.3812 14.5555C21.4265 14.568 21.4695 14.5758 21.4726 14.6266C21.4726 14.6969 21.4219 14.7094 21.3594 14.7079C21.3508 14.7063 21.3406 14.7039 21.3297 14.7055C21.2086 14.7352 20.9914 14.5985 20.9875 14.7797C20.9828 14.9188 21.2195 14.8204 21.3406 14.8672C21.3578 14.8743 21.3765 14.8899 21.4031 14.9094C21.3265 15.0477 21.1992 14.9704 21.1008 14.9868C21.0422 14.9961 20.9656 14.9704 20.957 15.0657C20.9461 15.1782 21.0242 15.1727 21.1008 15.1805C21.2312 15.1961 21.3726 15.1469 21.557 15.2688Z" fill="#0B9F43"/>
<path fill-rule="evenodd" clip-rule="evenodd" d="M19.4826 15.3281C19.3467 15.2984 19.3655 15.2203 19.342 15.1656C19.3014 15.0648 19.2209 15.0648 19.1326 15.0718C19.0319 15.0812 18.9772 15.1203 18.9858 15.232C18.992 15.2867 19.0139 15.375 18.9123 15.3625C18.8248 15.3515 18.8498 15.2664 18.8451 15.2086C18.8373 15.114 18.828 15.0172 18.8373 14.9234C18.8498 14.8187 18.7498 14.6586 18.9006 14.6211C19.0561 14.5804 19.2358 14.5515 19.3975 14.6289C19.4678 14.6625 19.5233 14.7445 19.4975 14.8109C19.4381 14.9781 19.485 15.1476 19.4826 15.3281Z" fill="#079D3F"/>
<path fill-rule="evenodd" clip-rule="evenodd" d="M17.8335 15.0625C17.8585 14.8508 17.9515 14.6789 18.1835 14.6867C18.4062 14.6937 18.5249 14.8484 18.5249 15.0711C18.5249 15.2922 18.4218 15.4445 18.1866 15.443C17.9476 15.4414 17.8663 15.268 17.8335 15.0625Z" fill="#15A24A"/>
<path fill-rule="evenodd" clip-rule="evenodd" d="M32.7063 19.0312C32.6844 19.2414 32.5805 19.3999 32.3406 19.421C32.1195 19.439 32.0024 19.3124 31.9852 19.1046C31.9656 18.8945 32.1719 18.6937 32.382 18.6953C32.5664 18.6968 32.7016 18.8304 32.7063 19.0312Z" fill="#11A147"/>
<path fill-rule="evenodd" clip-rule="evenodd" d="M28.3203 16.586C28.4968 16.7281 28.2828 16.8219 28.275 16.9414C28.1281 16.8735 27.9445 16.9008 27.8257 16.7719C27.6992 16.6344 27.7226 16.4789 27.8054 16.3274C27.8968 16.1672 28.0375 16.0985 28.2101 16.1594C28.3679 16.2156 28.4859 16.3219 28.4093 16.5219C28.2882 16.5438 28.189 16.3844 28.0187 16.4914C28.132 16.5438 28.2679 16.4711 28.3203 16.586Z" fill="#0C9F43"/>
<path fill-rule="evenodd" clip-rule="evenodd" d="M24.0702 14.9766C23.9671 15.0977 23.8913 15.0508 23.8202 15.0524C23.7515 15.0524 23.6781 14.9953 23.5929 15.0664C23.6695 15.1914 23.8546 15.111 23.9265 15.2352C23.9163 15.2532 23.9116 15.2774 23.8984 15.2899C23.7952 15.3711 23.6304 15.1742 23.5663 15.3367C23.5077 15.4766 23.6616 15.4282 23.7281 15.4516C23.8031 15.4813 23.896 15.4703 23.9866 15.5719C23.7765 15.6641 23.5257 15.6211 23.439 15.5196C23.3023 15.3594 23.3984 15.075 23.5023 14.9328C23.6249 14.7649 23.8491 14.9289 24.0702 14.9766Z" fill="#19A44D"/>
<path fill-rule="evenodd" clip-rule="evenodd" d="M25.4022 15.6562C25.2249 15.6375 25.0233 15.5125 24.9725 15.8047C24.971 15.814 24.9092 15.8273 24.8905 15.8148C24.8694 15.8031 24.8577 15.7593 24.8616 15.7343C24.9077 15.5492 24.9311 15.3508 25.0131 15.1843C25.1085 14.9968 25.2702 15.1554 25.4038 15.1734C25.5631 15.1945 25.6514 15.2914 25.6342 15.4593C25.6186 15.6039 25.5092 15.6429 25.4022 15.6562Z" fill="#0D9F44"/>
<path fill-rule="evenodd" clip-rule="evenodd" d="M27.5155 16.1039C27.4983 16.339 27.3827 16.5015 27.1475 16.5086C26.9374 16.5164 26.8194 16.3687 26.8241 16.1594C26.8304 15.9328 26.9405 15.7687 27.185 15.7617C27.4093 15.7539 27.496 15.9047 27.5155 16.1039Z" fill="#0FA046"/>
<path fill-rule="evenodd" clip-rule="evenodd" d="M22.2491 15.2554C22.2233 15.3109 22.2022 15.3898 22.128 15.3718C21.9991 15.3414 22.0569 15.2171 22.0257 15.1359C21.9303 15.0429 21.9553 15.171 21.9256 15.1945C21.9147 15.2523 21.9413 15.3406 21.8632 15.3523C21.7671 15.364 21.7897 15.2718 21.7921 15.2171C21.7999 15.1031 21.8014 14.9835 21.8327 14.8742C21.86 14.7804 21.7608 14.6078 21.9475 14.6062C22.1124 14.6054 22.0764 14.7734 22.0975 14.8742C22.1194 14.9898 22.1311 15.039 22.2256 14.9242C22.3233 14.8984 22.3436 14.9695 22.3663 15.0382C22.3788 15.1382 22.3342 15.2078 22.2491 15.2554Z" fill="#0EA044"/>
<path fill-rule="evenodd" clip-rule="evenodd" d="M30.5702 18.125C30.628 18.125 30.6866 18.2016 30.7429 18.136C30.7858 18.0868 30.7476 18.0383 30.7093 17.9985C30.6811 17.968 30.6515 17.9391 30.6249 17.9063C30.5452 17.8102 30.4335 17.718 30.5436 17.579C30.6436 17.4516 30.7601 17.4829 30.8757 17.5633C30.8968 17.604 30.8897 17.643 30.8679 17.6797C30.7827 17.8133 30.9413 17.8946 30.9382 18.0086C30.9624 18.1157 30.978 18.2235 30.8601 18.2852C30.7132 18.3633 30.5999 18.2915 30.4921 18.1977C30.4804 18.136 30.503 18.1055 30.5702 18.125Z" fill="#10A146"/>
<path fill-rule="evenodd" clip-rule="evenodd" d="M28.3202 16.5859C28.26 16.6281 28.1389 16.4914 28.1428 16.5945C28.1507 16.7773 28.0592 16.7609 27.9741 16.707C27.8592 16.6359 27.853 16.514 27.9257 16.4015C27.996 16.2914 28.0952 16.2273 28.2155 16.3171C28.2889 16.371 28.3444 16.4523 28.4077 16.5218L28.3202 16.5859Z" fill="#ECF7F0"/>
<path fill-rule="evenodd" clip-rule="evenodd" d="M22.3007 15.0703C22.2779 15.0221 22.2528 14.9749 22.2257 14.9289C22.2531 14.8594 22.2781 14.7891 22.3109 14.7219C22.3406 14.6586 22.3921 14.6234 22.4648 14.6469C22.546 14.6742 22.5398 14.7367 22.5351 14.8024C22.5179 14.9938 22.5023 15.1844 22.4874 15.3758C22.3734 15.4484 22.3445 15.382 22.3257 15.2836C22.3116 15.2125 22.3484 15.1359 22.3007 15.0703Z" fill="#17A34C"/>
<path fill-rule="evenodd" clip-rule="evenodd" d="M30.9404 18.0078C30.8701 17.936 30.7951 17.868 30.7295 17.7914C30.6529 17.7008 30.6826 17.6453 30.7967 17.6305C30.9615 17.6672 31.0623 17.7469 31.0139 17.936C30.9912 17.9594 30.9662 17.9844 30.9404 18.0078Z" fill="#D7EFE0"/>
<path fill-rule="evenodd" clip-rule="evenodd" d="M31.0139 17.936C30.9382 17.8376 30.9178 17.6969 30.7968 17.6305L30.878 17.5626C31.0093 17.6555 31.2491 17.7087 31.0139 17.936Z" fill="#2BAB5B"/>
<path fill-rule="evenodd" clip-rule="evenodd" d="M31.7741 18.5899C31.7639 18.5837 31.7506 18.5806 31.7459 18.572C31.6834 18.4563 31.4764 18.3524 31.5467 18.2501C31.635 18.1266 31.7272 18.2727 31.7756 18.3782C31.7975 18.4227 31.8241 18.4665 31.8491 18.5126C31.8233 18.5384 31.7975 18.5641 31.7741 18.5899Z" fill="#E6F5EC"/>
<path fill-rule="evenodd" clip-rule="evenodd" d="M30.5702 18.125C30.5452 18.1492 30.521 18.1742 30.4921 18.1984C30.4593 18.175 30.414 18.1586 30.3929 18.125C30.353 18.0492 30.239 17.9484 30.371 17.8891C30.482 17.8359 30.482 17.9773 30.5179 18.0461C30.5327 18.075 30.5515 18.0992 30.5702 18.125Z" fill="#29AA59"/>
<path fill-rule="evenodd" clip-rule="evenodd" d="M22.3006 15.0703C22.4147 15.1148 22.3545 15.2102 22.3561 15.2812C22.3624 15.3789 22.3967 15.4117 22.4881 15.3773C22.2975 15.5617 22.3217 15.3156 22.2483 15.2609C22.2678 15.1961 22.2827 15.1328 22.3006 15.0703Z" fill="#DDF1E4"/>
<path fill-rule="evenodd" clip-rule="evenodd" d="M21.9218 15.1953V14.9437C22.0296 14.9781 22.0327 15.0539 22.0218 15.1367C21.9889 15.1562 21.9546 15.175 21.9218 15.1953Z" fill="#6FC690"/>
<path fill-rule="evenodd" clip-rule="evenodd" d="M19.975 14.9375C19.9859 14.8234 19.9312 14.675 20.1258 14.6875C20.2679 14.6961 20.3711 14.7531 20.3789 14.9156C20.3867 15.0906 20.2843 15.1617 20.1226 15.1734C19.9172 15.1899 20.0008 15.0281 19.975 14.9375Z" fill="#F5FBF7"/>
<path fill-rule="evenodd" clip-rule="evenodd" d="M28.9844 16.6562C29.0657 16.7008 29.1899 16.7094 29.2164 16.8297C29.2297 16.8922 29.1758 16.9336 29.1203 16.9156C29.0172 16.8844 28.8805 16.8828 28.8664 16.7375C28.8625 16.6953 28.9078 16.6422 28.9844 16.6562Z" fill="#EFF8F3"/>
<path fill-rule="evenodd" clip-rule="evenodd" d="M26.4507 15.6953C26.4296 15.7765 26.3726 15.8046 26.307 15.7804C26.2187 15.7484 26.0765 15.7835 26.075 15.6289C26.0718 15.5484 26.1265 15.5242 26.2 15.5484C26.2968 15.5796 26.414 15.5757 26.4507 15.6953Z" fill="#DEF2E5"/>
<path fill-rule="evenodd" clip-rule="evenodd" d="M19.1522 14.7336C19.2287 14.743 19.3498 14.7023 19.342 14.8328C19.3342 14.9469 19.2186 14.9289 19.1358 14.9305C19.0694 14.9328 18.974 14.9672 18.9678 14.8476C18.9631 14.7055 19.074 14.75 19.1522 14.7336Z" fill="#F3FAF5"/>
<path fill-rule="evenodd" clip-rule="evenodd" d="M18.164 14.8422C18.3054 14.8516 18.3757 14.936 18.3812 15.0688C18.389 15.1875 18.3304 15.2891 18.2085 15.3C18.0679 15.3133 18.0046 15.2063 17.9968 15.0758C17.989 14.9555 18.0359 14.868 18.164 14.8422Z" fill="#F3FAF6"/>
<path fill-rule="evenodd" clip-rule="evenodd" d="M32.5508 19.0586C32.5304 19.1882 32.4523 19.2796 32.3015 19.2796C32.1804 19.2781 32.1351 19.1898 32.1476 19.0828C32.1594 18.9375 32.2461 18.8437 32.3937 18.8461C32.5101 18.8492 32.5554 18.9328 32.5508 19.0586Z" fill="#F9FCFA"/>
<path fill-rule="evenodd" clip-rule="evenodd" d="M25.2186 15.2719C25.2975 15.3203 25.4561 15.2703 25.4788 15.4266C25.4858 15.4859 25.4202 15.5164 25.3678 15.5047C25.2655 15.482 25.1225 15.5188 25.11 15.3539C25.1077 15.3031 25.1303 15.2484 25.2186 15.2719Z" fill="#E7F5EC"/>
<path fill-rule="evenodd" clip-rule="evenodd" d="M27.3593 16.1227C27.3444 16.2578 27.278 16.3523 27.1413 16.3523C27.0069 16.3539 26.9593 16.2602 26.9655 16.1367C26.9764 16.0008 27.0538 15.9102 27.1858 15.9047C27.3171 15.9 27.3593 16.0047 27.3593 16.1227Z" fill="#F5FBF7"/>
</svg>
